<svg width="40" height="40" viewBox="0 0 40 40" fill="none" xmlns="http://www.w3.org/2000/svg">
<path d="M20 0.193726C8.95 0.193726 0 9.14373 0 20.1937C0 29.0437 5.725 36.5187 13.675 39.1687C14.675 39.3437 15.05 38.7437 15.05 38.2187C15.05 37.7437 15.025 36.1687 15.025 34.4937C10 35.4187 8.7 33.2687 8.3 32.1437C8.075 31.5687 7.1 29.7937 6.25 29.3187C5.55 28.9437 4.55 28.0187 6.225 27.9937C7.8 27.9687 8.925 29.4437 9.3 30.0437C11.1 33.0687 13.975 32.2187 15.125 31.6937C15.3 30.3937 15.825 29.5187 16.4 29.0187C11.95 28.5187 7.3 26.7937 7.3 19.1437C7.3 16.9687 8.075 15.1687 9.35 13.7687C9.15 13.2687 8.45 11.2187 9.55 8.46873C9.55 8.46873 11.225 7.94373 15.05 10.5187C16.65 10.0687 18.35 9.84373 20.05 9.84373C21.75 9.84373 23.45 10.0687 25.05 10.5187C28.875 7.91873 30.55 8.46873 30.55 8.46873C31.65 11.2187 30.95 13.2687 30.75 13.7687C32.025 15.1687 32.8 16.9437 32.8 19.1437C32.8 26.8187 28.125 28.5187 23.675 29.0187C24.4 29.6437 25.025 30.8437 25.025 32.7187C25.025 35.3937 25 37.5437 25 38.2187C25 38.7437 25.375 39.3687 26.375 39.1687C30.3456 37.8287 33.7959 35.2771 36.2401 31.8731C38.6843 28.4692 39.9993 24.3843 40 20.1937C40 9.14373 31.05 0.193726 20 0.193726Z" fill="#FFF4E2"/>
</svg>
