<svg width="40" height="41" viewBox="0 0 40 41" fill="none" xmlns="http://www.w3.org/2000/svg">
<path d="M20 0.304443C14.5725 0.304443 13.89 0.329443 11.7575 0.424443C9.625 0.524443 8.1725 0.859443 6.9 1.35444C5.56523 1.85649 4.35623 2.64401 3.3575 3.66194C2.34019 4.66118 1.55277 5.87004 1.05 7.20444C0.555 8.47444 0.2175 9.92944 0.12 12.0544C0.025 14.1919 0 14.8719 0 20.3069C0 25.7369 0.025 26.4169 0.12 28.5494C0.22 30.6794 0.555 32.1319 1.05 33.4044C1.5625 34.7194 2.245 35.8344 3.3575 36.9469C4.4675 38.0594 5.5825 38.7444 6.8975 39.2544C8.1725 39.7494 9.6225 40.0869 11.7525 40.1844C13.8875 40.2794 14.5675 40.3044 20 40.3044C25.4325 40.3044 26.11 40.2794 28.245 40.1844C30.3725 40.0844 31.83 39.7494 33.1025 39.2544C34.4364 38.7521 35.6445 37.9646 36.6425 36.9469C37.755 35.8344 38.4375 34.7194 38.95 33.4044C39.4425 32.1319 39.78 30.6794 39.88 28.5494C39.975 26.4169 40 25.7369 40 20.3044C40 14.8719 39.975 14.1919 39.88 12.0569C39.78 9.92944 39.4425 8.47444 38.95 7.20444C38.4473 5.87001 37.6599 4.66113 36.6425 3.66194C35.6441 2.64363 34.435 1.85606 33.1 1.35444C31.825 0.859443 30.37 0.521943 28.2425 0.424443C26.1075 0.329443 25.43 0.304443 19.995 0.304443H20.0025H20ZM18.2075 3.90944H20.0025C25.3425 3.90944 25.975 3.92694 28.0825 4.02444C30.0325 4.11194 31.0925 4.43944 31.7975 4.71194C32.73 5.07444 33.3975 5.50944 34.0975 6.20944C34.7975 6.90944 35.23 7.57444 35.5925 8.50944C35.8675 9.21194 36.1925 10.2719 36.28 12.2219C36.3775 14.3294 36.3975 14.9619 36.3975 20.2994C36.3975 25.6369 36.3775 26.2719 36.28 28.3794C36.1925 30.3294 35.865 31.3869 35.5925 32.0919C35.2719 32.9603 34.7601 33.7455 34.095 34.3894C33.395 35.0894 32.73 35.5219 31.795 35.8844C31.095 36.1594 30.035 36.4844 28.0825 36.5744C25.975 36.6694 25.3425 36.6919 20.0025 36.6919C14.6625 36.6919 14.0275 36.6694 11.92 36.5744C9.97 36.4844 8.9125 36.1594 8.2075 35.8844C7.33875 35.5642 6.55281 35.0534 5.9075 34.3894C5.24188 33.7445 4.72931 32.9586 4.4075 32.0894C4.135 31.3869 3.8075 30.3269 3.72 28.3769C3.625 26.2694 3.605 25.6369 3.605 20.2944C3.605 14.9544 3.625 14.3244 3.72 12.2169C3.81 10.2669 4.135 9.20694 4.41 8.50194C4.7725 7.56944 5.2075 6.90194 5.9075 6.20194C6.6075 5.50194 7.2725 5.06944 8.2075 4.70694C8.9125 4.43194 9.97 4.10694 11.92 4.01694C13.765 3.93194 14.48 3.90694 18.2075 3.90444V3.90944ZM30.6775 7.22944C30.3623 7.22944 30.0502 7.29152 29.7591 7.41213C29.4679 7.53274 29.2033 7.70953 28.9804 7.93239C28.7576 8.15525 28.5808 8.41982 28.4602 8.711C28.3396 9.00218 28.2775 9.31427 28.2775 9.62944C28.2775 9.94462 28.3396 10.2567 28.4602 10.5479C28.5808 10.8391 28.7576 11.1036 28.9804 11.3265C29.2033 11.5494 29.4679 11.7261 29.7591 11.8468C30.0502 11.9674 30.3623 12.0294 30.6775 12.0294C31.314 12.0294 31.9245 11.7766 32.3746 11.3265C32.8246 10.8764 33.0775 10.266 33.0775 9.62944C33.0775 8.99292 32.8246 8.38247 32.3746 7.93239C31.9245 7.4823 31.314 7.22944 30.6775 7.22944ZM20.0025 10.0344C18.6402 10.0132 17.2872 10.2632 16.0224 10.7698C14.7577 11.2764 13.6063 12.0296 12.6354 12.9855C11.6645 13.9414 10.8934 15.0809 10.3671 16.3376C9.8408 17.5943 9.56975 18.9432 9.56975 20.3057C9.56975 21.6682 9.8408 23.0171 10.3671 24.2738C10.8934 25.5305 11.6645 26.67 12.6354 27.6259C13.6063 28.5818 14.7577 29.335 16.0224 29.8416C17.2872 30.3482 18.6402 30.5982 20.0025 30.5769C22.6989 30.5349 25.2705 29.4342 27.1624 27.5126C29.0544 25.5909 30.1148 23.0024 30.1147 20.3057C30.1148 17.609 29.0544 15.0205 27.1624 13.0988C25.2705 11.1772 22.6989 10.0765 20.0025 10.0344ZM20.0025 13.6369C21.7708 13.6369 23.4667 14.3394 24.7171 15.5898C25.9675 16.8402 26.67 18.5361 26.67 20.3044C26.67 22.0728 25.9675 23.7687 24.7171 25.0191C23.4667 26.2695 21.7708 26.9719 20.0025 26.9719C18.2342 26.9719 16.5383 26.2695 15.2879 25.0191C14.0375 23.7687 13.335 22.0728 13.335 20.3044C13.335 18.5361 14.0375 16.8402 15.2879 15.5898C16.5383 14.3394 18.2342 13.6369 20.0025 13.6369Z" fill="#FFF4E2"/>
</svg>
