<svg width="40" height="29" viewBox="0 0 40 29" fill="none" xmlns="http://www.w3.org/2000/svg">
<path d="M20.1275 0.207031H20.35C22.405 0.214531 32.8175 0.289532 35.625 1.04453C36.4737 1.27495 37.2471 1.72409 37.8679 2.34705C38.4887 2.97002 38.9351 3.74499 39.1625 4.59453C39.415 5.54453 39.5925 6.80203 39.7125 8.09953L39.7375 8.35953L39.7925 9.00953L39.8125 9.26953C39.975 11.5545 39.995 13.6945 39.9975 14.162V14.3495C39.995 14.8345 39.9725 17.1195 39.7925 19.4995L39.7725 19.762L39.75 20.022C39.625 21.452 39.44 22.872 39.1625 23.917C38.9358 24.7669 38.4896 25.5423 37.8687 26.1653C37.2478 26.7884 36.4741 27.2373 35.625 27.467C32.725 28.247 21.7025 28.302 20.175 28.3045H19.82C19.0475 28.3045 15.8525 28.2895 12.5025 28.1745L12.0775 28.1595L11.86 28.1495L11.4325 28.132L11.005 28.1145C8.23 27.992 5.5875 27.7945 4.37 27.4645C3.52122 27.235 2.74766 26.7865 2.12681 26.1639C1.50596 25.5413 1.05962 24.7665 0.8325 23.917C0.555 22.8745 0.37 21.452 0.245 20.022L0.225 19.7595L0.205 19.4995C0.081619 17.8055 0.0132497 16.108 0 14.4095L0 14.102C0.005 13.5645 0.025 11.707 0.16 9.65703L0.1775 9.39953L0.185 9.26953L0.205 9.00953L0.26 8.35953L0.285 8.09953C0.405 6.80203 0.5825 5.54203 0.835 4.59453C1.06173 3.74465 1.50791 2.96931 2.12878 2.34624C2.74966 1.72317 3.52342 1.27426 4.3725 1.04453C5.59 0.719532 8.2325 0.519531 11.0075 0.394531L11.4325 0.377031L11.8625 0.362032L12.0775 0.354532L12.505 0.337032C14.8843 0.260468 17.2645 0.217963 19.645 0.209531H20.1275V0.207031ZM16 8.23203V20.277L26.3925 14.257L16 8.23203Z" fill="#FFF4E2"/>
</svg>
