<svg width="21" height="21" viewBox="0 0 21 21" fill="none" xmlns="http://www.w3.org/2000/svg">
<path d="M6.03603 13.1226C6.10988 13.0478 6.12947 12.9306 6.06934 12.8444C4.9366 11.2205 4.43455 9.23652 4.6619 7.26529C4.8965 5.23111 5.89051 3.36052 7.44507 2.02776C8.99963 0.695002 11.0001 -0.00164434 13.0462 0.0771971C15.0924 0.156039 17.0333 1.00455 18.4807 2.45299C19.9281 3.90142 20.7752 5.84295 20.8526 7.88914C20.93 9.93534 20.2319 11.9353 18.898 13.4889C17.5641 15.0425 15.6928 16.0352 13.6585 16.2683C11.6244 16.5014 9.5773 15.958 7.92664 14.7468C7.92644 14.7467 7.92654 14.7464 7.92678 14.7464C7.92699 14.7464 7.9271 14.7466 7.92698 14.7467C7.88957 14.7966 7.84966 14.844 7.80478 14.8901L2.99228 19.7026C2.75789 19.9372 2.43993 20.069 2.10834 20.0691C1.77676 20.0692 1.4587 19.9376 1.22415 19.7032C0.989601 19.4688 0.857765 19.1509 0.857647 18.8193C0.857531 18.4877 0.989141 18.1697 1.22353 17.9351L6.03603 13.1226ZM5.85728 8.19385C5.85728 9.09669 6.0351 9.99069 6.3806 10.8248C6.72611 11.6589 7.23251 12.4168 7.87092 13.0552C8.50932 13.6936 9.26721 14.2 10.1013 14.5455C10.9354 14.891 11.8294 15.0689 12.7323 15.0689C13.6351 15.0689 14.5291 14.891 15.3632 14.5455C16.1973 14.2 16.9552 13.6936 17.5936 13.0552C18.232 12.4168 18.7384 11.6589 19.0839 10.8248C19.4294 9.99069 19.6073 9.09669 19.6073 8.19385C19.6073 6.37049 18.8829 4.6218 17.5936 3.33249C16.3043 2.04318 14.5556 1.31885 12.7323 1.31885C10.9089 1.31885 9.16023 2.04318 7.87092 3.33249C6.5816 4.6218 5.85728 6.37049 5.85728 8.19385Z" fill="#FFF4E2"/>
</svg>
