<svg width="41" height="41" viewBox="0 0 41 41" fill="none" xmlns="http://www.w3.org/2000/svg">
<path d="M3.54601 40.2017C3.54601 40.2017 0.212697 40.2136 0.200811 36.8803C0.188925 33.547 3.48658 23.5352 20.1531 23.4757C36.8197 23.4163 40.1887 33.4044 40.2006 36.7377C40.2124 40.071 36.8791 40.0829 36.8791 40.0829L3.54601 40.2017ZM20.1413 20.1424C22.7934 20.133 25.3332 19.0703 27.2018 17.1883C29.0705 15.3063 30.115 12.759 30.1055 10.1068C30.0961 7.45468 29.0334 4.91492 27.1514 3.04625C25.2694 1.17759 22.7221 0.133096 20.0699 0.142553C17.4178 0.15201 14.878 1.21464 13.0094 3.09668C11.1407 4.97872 10.0962 7.526 10.1057 10.1781C10.1151 12.8303 11.1778 15.3701 13.0598 17.2387C14.9418 19.1074 17.4891 20.1519 20.1413 20.1424Z" fill="#FFF4E2"/>
</svg>
