<svg width="56" height="40" viewBox="0 0 56 40" fill="none" xmlns="http://www.w3.org/2000/svg">
<path d="M25.7686 22.318L13.8009 26.5229L8.62571 29.1105L0 31.6981L16.3886 40L42.2645 38.8139L41.6176 34.9325L44.2052 37.1967L55.2025 32.0215L25.7686 22.318Z" fill="#FFF4E2"/>
<path d="M55.2025 32.0215L33.2496 24.7843L13.5293 27.9265L24.6264 39.0239L42.2646 38.8139L41.6176 34.9325L44.2053 37.1967L55.2025 32.0215Z" fill="#FFF4E2"/>
<path d="M40.4142 27.9265L40.4337 28.0302L13.4775 28.1401L13.5293 27.9265L15.1074 21.781L19.6231 4.20487L28.0328 0L40.0004 3.88142L47.1163 3.55797L39.6769 9.38L36.7659 9.05655L39.224 21.781L40.4142 27.9265Z" fill="#FFF4E2"/>
<path d="M36.7658 9.05659L36.1189 6.14563L39.6769 9.38004L36.7658 9.05659Z" fill="#FFF4E2"/>
<path d="M40.4142 27.9265H13.5293L15.1074 21.781H39.224L40.4142 27.9265Z" fill="#FFD075"/>
<path opacity="0.08" d="M55.2024 32.0215L40.2524 27.093L39.2239 21.781L36.7658 9.05655L39.6768 9.38L47.1162 3.55797L40.0003 3.88142L28.0327 0L27.7673 0.132723V39.4785L42.2645 38.8139L41.6175 34.9325L44.2052 37.1966L55.2024 32.0215Z" fill="#FFF4E2"/>
</svg>
