<svg width="15" height="13" viewBox="0 0 15 13" fill="none" xmlns="http://www.w3.org/2000/svg">
<path d="M10.415 7.84322C10.5399 7.50955 10.6032 7.156 10.602 6.79973C10.602 6.00868 10.2877 5.25003 9.72837 4.69068C9.16901 4.13132 8.41036 3.81708 7.61932 3.81708C7.26744 3.81749 6.91846 3.8808 6.58887 4.00404L7.28888 4.72579C7.39529 4.70876 7.50286 4.70004 7.61062 4.6997C8.16995 4.69853 8.70702 4.91872 9.10455 5.31218C9.50209 5.70565 9.7278 6.24042 9.73239 6.79973C9.73203 6.90749 9.72331 7.01506 9.7063 7.12147L10.415 7.84322Z" fill="#c9cbcc" fill-opacity="1"/>
<path d="M14.3715 6.59612C12.9063 3.88738 10.3367 2.24823 7.49314 2.24823C6.71893 2.25005 5.94992 2.37479 5.21484 2.6178L5.91485 3.32216C6.43045 3.18891 6.96061 3.12027 7.49314 3.11781C9.941 3.11781 12.1671 4.48304 13.4932 6.78308C13.0068 7.6364 12.3619 8.38901 11.5932 9.0005L12.2106 9.6179C13.1002 8.90021 13.839 8.01361 14.3845 7.00917L14.4976 6.80047L14.3715 6.59612Z" fill="#c9cbcc" fill-opacity="1"/>
<path d="M1.58067 1.48701L3.51983 3.42616C2.29412 4.21535 1.29236 5.30696 0.611092 6.59577L0.498047 6.80012L0.611092 7.00882C2.07633 9.71756 4.64593 11.3567 7.48945 11.3567C8.59931 11.3565 9.69476 11.1053 10.6938 10.6219L12.8678 12.7959L13.6287 12.1437L2.32416 0.839172L1.58067 1.48701ZM5.81986 5.7262L8.7112 8.61754C8.38451 8.81976 8.00843 8.92807 7.62423 8.93059C7.34507 8.93059 7.06866 8.8754 6.81091 8.76817C6.55316 8.66095 6.31915 8.50381 6.12236 8.30581C5.92557 8.1078 5.76987 7.87284 5.66423 7.61443C5.55859 7.35603 5.50509 7.07928 5.50681 6.80012C5.51171 6.42036 5.61993 6.04911 5.81986 5.7262V5.7262ZM5.18942 5.09575C4.78264 5.66941 4.59198 6.36851 4.6512 7.06925C4.71041 7.77 5.01568 8.42719 5.51295 8.92446C6.01021 9.42172 6.6674 9.72699 7.36815 9.7862C8.06889 9.84542 8.76799 9.65476 9.34165 9.24798L10.0373 9.94365C9.23198 10.2879 8.36526 10.4654 7.48945 10.4654C5.04159 10.4654 2.81547 9.10016 1.48936 6.80012C2.12577 5.67325 3.04231 4.72975 4.15027 4.06096L5.18942 5.09575Z" fill="#c9cbcc" fill-opacity="1"/>
</svg>
