<svg width="15" height="10" viewBox="0 0 15 10" fill="none" xmlns="http://www.w3.org/2000/svg">
<path d="M14.4978 4.8175C14.4978 4.8175 11.8728 0.00500488 7.4978 0.00500488C3.1228 0.00500488 0.497803 4.8175 0.497803 4.8175C0.497803 4.8175 3.1228 9.63 7.4978 9.63C11.8728 9.63 14.4978 4.8175 14.4978 4.8175ZM1.52418 4.8175C1.94725 4.17449 2.43386 3.57561 2.97668 3.02988C4.1028 1.902 5.6428 0.880005 7.4978 0.880005C9.3528 0.880005 10.8919 1.902 12.0198 3.02988C12.5626 3.57561 13.0492 4.17449 13.4723 4.8175C13.4216 4.89363 13.3656 4.97763 13.3017 5.0695C13.0086 5.4895 12.5754 6.04951 12.0198 6.60513C10.8919 7.73301 9.35193 8.755 7.4978 8.755C5.6428 8.755 4.10368 7.73301 2.9758 6.60513C2.43299 6.0594 1.94726 5.46052 1.52418 4.8175Z" fill="#c9cbcc" fill-opacity="1"/>
<path d="M7.4978 2.63C6.91764 2.63 6.36124 2.86047 5.95101 3.27071C5.54077 3.68094 5.3103 4.23734 5.3103 4.8175C5.3103 5.39767 5.54077 5.95407 5.95101 6.3643C6.36124 6.77454 6.91764 7.005 7.4978 7.005C8.07796 7.005 8.63436 6.77454 9.0446 6.3643C9.45483 5.95407 9.6853 5.39767 9.6853 4.8175C9.6853 4.23734 9.45483 3.68094 9.0446 3.27071C8.63436 2.86047 8.07796 2.63 7.4978 2.63ZM4.4353 4.8175C4.4353 4.00528 4.75796 3.22632 5.33229 2.65199C5.90662 2.07766 6.68558 1.755 7.4978 1.755C8.31003 1.755 9.08899 2.07766 9.66332 2.65199C10.2376 3.22632 10.5603 4.00528 10.5603 4.8175C10.5603 5.62973 10.2376 6.40869 9.66332 6.98302C9.08899 7.55735 8.31003 7.88 7.4978 7.88C6.68558 7.88 5.90662 7.55735 5.33229 6.98302C4.75796 6.40869 4.4353 5.62973 4.4353 4.8175Z" fill="#c9cbcc" fill-opacity="1"/>
</svg>
