<svg width="40" height="33" viewBox="0 0 40 33" fill="none" xmlns="http://www.w3.org/2000/svg">
<path d="M12.565 32.8062C27.66 32.8062 35.9175 20.2987 35.9175 9.47118C35.9175 9.12118 35.9175 8.76618 35.9025 8.41618C37.5101 7.25239 38.8977 5.81156 40 4.16118C38.4983 4.8233 36.9069 5.25969 35.2775 5.45618C36.9938 4.43027 38.2793 2.8161 38.895 0.913676C37.2825 1.86899 35.5175 2.53961 33.6775 2.89618C32.4405 1.57874 30.8035 0.70597 29.0202 0.41307C27.2369 0.120169 25.4068 0.42348 23.8133 1.27602C22.2199 2.12856 20.952 3.48275 20.2061 5.12883C19.4602 6.77491 19.2779 8.62101 19.6875 10.3812C16.4244 10.2176 13.232 9.36985 10.3176 7.89303C7.40317 6.41622 4.83171 4.34329 2.77 1.80868C1.72335 3.61638 1.40393 5.75468 1.87662 7.78934C2.3493 9.82401 3.57864 11.6025 5.315 12.7637C4.01385 12.7195 2.7413 12.3701 1.6 11.7437V11.8562C1.60224 13.7499 2.25827 15.5847 3.45718 17.0506C4.6561 18.5164 6.32437 19.5234 8.18 19.9012C7.47566 20.0952 6.74807 20.1919 6.0175 20.1887C5.50246 20.1902 4.98845 20.1425 4.4825 20.0462C5.00697 21.6763 6.02818 23.1016 7.40312 24.1224C8.77805 25.1431 10.4378 25.7083 12.15 25.7387C9.24139 28.0232 5.6485 29.2622 1.95 29.2562C1.2983 29.2589 0.647058 29.2214 0 29.1437C3.75379 31.5368 8.11324 32.8075 12.565 32.8062Z" fill="#FFF4E2"/>
</svg>
