<svg width="41" height="41" viewBox="0 0 41 41" fill="none" xmlns="http://www.w3.org/2000/svg">
<circle cx="20.3557" cy="20.2139" r="20" fill="#282E32"/>
<path d="M24.185 24.2139C23.7732 25.3791 22.6619 26.2139 21.3557 26.2139C20.0495 26.2139 18.9383 25.3791 18.5264 24.2139L11.3557 24.2139C10.8034 24.2139 10.3557 23.7662 10.3557 23.2139C10.3557 22.6616 10.8034 22.2139 11.3557 22.2139L18.5264 22.2139C18.9383 21.0487 20.0495 20.2139 21.3557 20.2139C22.6619 20.2139 23.7732 21.0487 24.185 22.2139L29.3557 22.2139C29.908 22.2139 30.3557 22.6616 30.3557 23.2139C30.3557 23.7662 29.908 24.2139 29.3557 24.2139L24.185 24.2139ZM18.185 17.2139C17.7732 18.3791 16.6619 19.2139 15.3557 19.2139C14.0495 19.2139 12.9383 18.3791 12.5264 17.2139L11.3557 17.2139C10.8034 17.2139 10.3557 16.7662 10.3557 16.2139C10.3557 15.6616 10.8034 15.2139 11.3557 15.2139L12.5264 15.2139C12.9383 14.0487 14.0495 13.2139 15.3557 13.2139C16.6619 13.2139 17.7732 14.0487 18.185 15.2139L29.3557 15.2139C29.908 15.2139 30.3557 15.6616 30.3557 16.2139C30.3557 16.7662 29.908 17.2139 29.3557 17.2139L18.185 17.2139ZM15.3557 17.2139C15.908 17.2139 16.3557 16.7662 16.3557 16.2139C16.3557 15.6616 15.908 15.2139 15.3557 15.2139C14.8034 15.2139 14.3557 15.6616 14.3557 16.2139C14.3557 16.7662 14.8034 17.2139 15.3557 17.2139ZM21.3557 24.2139C21.908 24.2139 22.3557 23.7662 22.3557 23.2139C22.3557 22.6616 21.908 22.2139 21.3557 22.2139C20.8034 22.2139 20.3557 22.6616 20.3557 23.2139C20.3557 23.7662 20.8034 24.2139 21.3557 24.2139Z" fill="#FFF4E2"/>
</svg>
