<svg width="13" height="13" viewBox="0 0 13 13" fill="none" xmlns="http://www.w3.org/2000/svg">
<path d="M12.3809 5.64232H11.8976V5.61742H6.4977V8.01738H9.88854C9.39385 9.41446 8.06457 10.4173 6.4977 10.4173C4.50963 10.4173 2.89776 8.80547 2.89776 6.8174C2.89776 4.82934 4.50963 3.21746 6.4977 3.21746C7.41538 3.21746 8.25027 3.56366 8.88596 4.12915L10.583 2.43208C9.51145 1.43339 8.07807 0.817505 6.4977 0.817505C3.18426 0.817505 0.497803 3.50396 0.497803 6.8174C0.497803 10.1308 3.18426 12.8173 6.4977 12.8173C9.81114 12.8173 12.4976 10.1308 12.4976 6.8174C12.4976 6.41511 12.4562 6.02242 12.3809 5.64232Z" fill="#FFC107"/>
<path d="M1.18896 4.02475L3.16023 5.47042C3.69362 4.14985 4.9854 3.21746 6.49707 3.21746C7.41476 3.21746 8.24964 3.56366 8.88533 4.12915L10.5824 2.43208C9.51082 1.43339 8.07745 0.817505 6.49707 0.817505C4.19251 0.817505 2.19395 2.11858 1.18896 4.02475Z" fill="#FF3D00"/>
<path d="M6.49766 12.8175C8.04743 12.8175 9.45561 12.2244 10.5203 11.26L8.66332 9.68858C8.04069 10.1621 7.27988 10.4182 6.49766 10.4176C4.93708 10.4176 3.61201 9.42249 3.11282 8.03381L1.15625 9.54129C2.14923 11.4844 4.1658 12.8175 6.49766 12.8175Z" fill="#4CAF50"/>
<path d="M12.381 5.64227H11.8977V5.61737H6.4978V8.01733H9.88865C9.65201 8.68224 9.22576 9.26326 8.66257 9.6886L8.66347 9.688L10.5204 11.2594C10.389 11.3788 12.4977 9.8173 12.4977 6.81735C12.4977 6.41506 12.4563 6.02236 12.381 5.64227Z" fill="#1976D2"/>
</svg>
