<svg width="140" height="140" viewBox="0 0 140 140" fill="none" xmlns="http://www.w3.org/2000/svg">
<path fill-rule="evenodd" clip-rule="evenodd" d="M114.993 85.5L114.803 85.421C102.657 80.39 93.003 84.835 86.869 89.703C89.873 82.038 90.612 75.141 90.745 73.599C91.678 71.721 92.956 70.579 94.648 70.111C99.172 68.856 105.061 72.767 105.118 72.806L106.703 73.87L116.03 50.834L86.882 22.498L63.747 25.132C63.24 25.211 62.74 25.305 62.24 25.402C57.764 19.614 52.103 14.857 45.557 12.109L69.933 6.325L121.033 18.447L121.529 49.467C121.529 62.365 119.266 74.506 114.993 85.499V85.5ZM70.089 52.745C70.927 61.653 69.926 83.158 42.784 90.998L28.844 66.396C29.939 55.233 35.126 45.34 42.886 38.346L43.151 38.698C49.828 47.605 49.841 57.046 43.185 65.282L42.215 66.48L44.623 68.41L45.592 67.21C53.216 57.776 53.228 46.996 45.626 36.857L45.252 36.359C49.9087 32.7391 55.2882 30.1611 61.027 28.799C65.918 35.573 69.258 43.919 70.089 52.745V52.745ZM94.142 34.13C90.87 36.794 86.797 40.11 87.687 54.694C88.252 63.994 87.807 71.372 87.707 72.8L87.703 72.811L87.687 73.104C87.681 73.201 87.08 82.804 82.467 92.261C76.517 104.466 66.946 110.703 54.013 110.811L44.34 93.745C64.273 87.7 75.035 72.34 73.164 52.46C72.392 44.26 69.23 35.572 64.242 28.171L85.774 25.721L94.311 34.02C94.254 34.055 94.196 34.087 94.142 34.13V34.13ZM100.45 50.53C101.864 50.5582 103.233 50.0322 104.264 49.0644C105.295 48.0966 105.907 46.7638 105.968 45.351L112.392 51.596L105.225 69.297C102.795 67.996 98.07 65.971 93.831 67.146C92.8105 67.4248 91.8501 67.8892 90.998 68.516C91.095 65.133 91.118 60.211 90.77 54.507C89.976 41.495 93.088 38.961 96.097 36.512C96.244 36.392 96.357 36.249 96.447 36.095L105.833 45.219L95.121 45.019C95.065 48.006 97.451 50.473 100.45 50.529V50.53ZM69.947 133.252C37.943 118.457 18.883 87.242 18.883 49.467V18.438L39.836 13.466C47.009 15.261 53.698 19.853 58.971 26.159C40.831 31.08 27.433 47.075 25.723 66.601L25.68 67.076L52.202 113.873L53.089 113.886C53.284 113.888 53.471 113.889 53.664 113.889C66.984 113.889 75.55 107.845 81.047 100.421L81.202 100.52L82.035 99.228C82.067 99.18 85.212 94.359 90.709 90.635C97.919 85.75 105.629 84.954 113.617 88.26L113.827 88.347C105.364 108.102 90.23 123.883 69.947 133.252V133.252ZM69.933 0L12.706 13.58V49.467C12.706 90.234 33.635 123.87 68.689 139.441L69.947 140L71.205 139.441C106.584 123.725 127.705 90.091 127.705 49.418L127.135 13.571L69.932 0H69.933Z" fill="#FFF4E2"/>
</svg>
