<svg width="140" height="140" viewBox="0 0 140 140" fill="none" xmlns="http://www.w3.org/2000/svg">
<path fill-rule="evenodd" clip-rule="evenodd" d="M117.288 83.27C116.272 80.2905 114.829 77.4745 113.003 74.91C109.72 70.269 102.867 63.216 90.333 60.202C96.461 58.612 101.227 54.872 101.797 44.974L101.927 42.727L99.83 43.418C99.75 43.442 91.346 45.695 72.177 33.352C67.477 30.303 60.058 27.949 52.795 30.014C52.8718 29.5984 52.911 29.1767 52.912 28.754C52.912 24.931 49.868 21.82 46.128 21.82C42.386 21.82 39.343 24.93 39.343 28.754C39.343 31.807 41.285 34.4 43.972 35.322C40.808 38.522 38.298 42.916 36.563 48.388C36.1332 49.7377 35.7888 51.113 35.532 52.506L35.309 53.066C28.281 70.72 32.927 80.509 36.319 87.656C39.305 93.946 41.154 97.877 35.077 104.442C32.167 100.535 29.575 95.709 27.426 89.479C23.255 77.385 23.166 34.821 23.24 21.89C28.143 22.504 37.046 22.13 47.477 14.832C55.252 9.392 63.604 6.395 71.637 6.159C79.671 6.395 88.024 9.393 95.798 14.832C106.23 22.13 115.132 22.505 120.036 21.89C120.1 33.125 120.04 66.714 117.288 83.27V83.27ZM87.424 120.816C84.993 122.19 82.531 123.589 80.095 125.127C83.969 114.592 82.495 102.804 78.755 96.102C75.862 90.915 70.465 86.679 62.72 83.502C61.744 81.734 58.177 74.652 60.246 69.188C61.332 66.322 63.903 64.284 67.886 63.132C70.426 62.397 73.172 62.041 75.941 61.805V61.83H77.447C97.099 61.83 106.63 71.154 110.562 76.713C113.834 81.338 115.346 86.136 115.653 90.027C109.097 108.557 98.567 114.517 87.424 120.816V120.816ZM67.066 60.169C62.122 61.599 58.883 64.26 57.436 68.077C55.586 72.962 57.192 78.542 58.668 82.057C50.011 78.707 43.595 73.544 40.406 67.299C38.886 64.318 38.139 61.115 38.109 57.733C38.721 51.585 41.215 47.331 45.54 45.105C51.396 42.088 58.762 43.641 62.118 45.709C80.892 57.268 97.41 49.356 98.103 49.013L98.163 48.984C95.961 57.384 88.607 57.869 79.597 58.454C75.415 58.724 71.092 59.004 67.067 60.169H67.066ZM52.39 33.374C54.427 32.624 56.5 32.306 58.525 32.306C63.141 32.306 67.502 33.965 70.568 35.956C83.042 43.988 91.311 46.156 95.998 46.583C93.638 47.525 86.245 49.968 76.854 48.223C77.266 44.984 75.108 41.965 71.93 41.413C69.432 40.98 67.038 42.199 65.805 44.29C65.0832 43.9047 64.3729 43.4981 63.675 43.071C59.065 40.233 50.667 39.019 44.185 42.356C43.2305 42.8493 42.3294 43.4398 41.496 44.118C44.146 38.678 47.794 35.068 52.39 33.374V33.374ZM46.129 32.609C44.048 32.609 42.357 30.879 42.357 28.754C42.357 26.629 44.047 24.899 46.129 24.899C48.209 24.899 49.901 26.629 49.901 28.754C49.901 30.88 48.208 32.609 46.129 32.609ZM55.859 120.815C49.097 116.995 42.562 113.297 37.001 106.845C44.836 98.551 42.139 92.862 39.031 86.313C36.313 80.584 33.053 73.708 35.541 62.41C35.9777 64.6053 36.7164 66.7294 37.736 68.722C41.701 76.49 50.016 82.685 61.154 86.174C68.494 89.108 73.537 92.962 76.139 97.627C79.979 104.507 81.1 118.003 75.179 128.513C73.9593 129.432 72.7798 130.402 71.644 131.423C66.649 126.912 61.175 123.819 55.859 120.815ZM125.943 13.731L121.961 15.215C121.562 15.362 112.058 18.744 99.201 9.75C90.446 3.625 80.944 0.253 71.725 0.002L71.632 0L71.552 0.002C62.333 0.253 52.831 3.625 44.075 9.75C31.221 18.743 21.713 15.363 21.339 15.223L17.309 13.643L17.247 18.053C17.214 20.422 16.474 76.249 21.743 91.525C29.046 112.702 41.195 119.565 52.943 126.204C58.923 129.583 64.573 132.774 69.513 137.824L71.643 140L73.773 137.823C78.714 132.774 84.361 129.583 90.34 126.205C102.085 119.566 114.23 112.703 121.533 91.525C126.801 76.249 126.063 20.422 126.029 18.052L125.942 13.731H125.943Z" fill="#FFF4E2"/>
</svg>
