<svg width="55" height="41" viewBox="0 0 55 41" fill="none" xmlns="http://www.w3.org/2000/svg">
<path fill-rule="evenodd" clip-rule="evenodd" d="M34.2005 35.1422C34.2021 35.5842 34.028 36.0088 33.7165 36.3225C33.4051 36.6361 32.9818 36.8132 32.5398 36.8148L5.87326 36.9099C5.43124 36.9115 5.00669 36.7374 4.69302 36.4259C4.37935 36.1145 4.20224 35.6912 4.20067 35.2492L4.09369 5.24937C4.09212 4.80735 4.2662 4.3828 4.57764 4.06913C4.88909 3.75546 5.31238 3.57835 5.75441 3.57677L32.4209 3.48169C32.8629 3.48011 33.2875 3.6542 33.6012 3.96564C33.9148 4.27708 34.0919 4.70038 34.0935 5.1424L34.1173 11.809C34.1189 12.2511 34.296 12.6743 34.6096 12.9858C34.9233 13.2972 35.3479 13.4713 35.7899 13.4697C36.2319 13.4682 36.6552 13.2911 36.9666 12.9774C37.2781 12.6637 37.4522 12.2392 37.4506 11.7971L37.4268 5.13052C37.4221 3.80444 36.8908 2.53456 35.9498 1.60023C35.0087 0.665895 33.7351 0.143649 32.409 0.148378L5.74252 0.243463C4.41645 0.248191 3.14656 0.779507 2.21223 1.72053C1.2779 2.66155 0.755654 3.93519 0.760382 5.26126L0.867353 35.2611C0.872082 36.5871 1.4034 37.857 2.34442 38.7914C3.28544 39.7257 4.55908 40.2479 5.88515 40.2432L32.5516 40.1481C33.8777 40.1434 35.1476 39.6121 36.0819 38.6711C37.0163 37.73 37.5385 36.4564 37.5338 35.1303L37.51 28.4637C37.5084 28.0217 37.3313 27.5984 37.0177 27.2869C36.704 26.9755 36.2794 26.8014 35.8374 26.803C35.3954 26.8046 34.9721 26.9817 34.6607 27.2953C34.3492 27.609 34.1751 28.0336 34.1767 28.4756L34.2005 35.1422Z" fill="#FFF4E2"/>
<path fill-rule="evenodd" clip-rule="evenodd" d="M53.6644 21.2527C53.8191 21.0973 53.9416 20.913 54.0249 20.7102C54.1082 20.5074 54.1506 20.2902 54.1499 20.071C54.1491 19.8517 54.1051 19.6348 54.0203 19.4326C53.9356 19.2305 53.8118 19.047 53.656 18.8927L43.6204 8.92844C43.3064 8.6166 42.8813 8.4423 42.4387 8.44388C41.9961 8.44546 41.5723 8.62278 41.2604 8.93685C40.9486 9.25092 40.7743 9.67601 40.7759 10.1186C40.7775 10.5612 40.9548 10.985 41.2688 11.2968L48.451 18.4246L19.1412 18.5291C18.6991 18.5307 18.2758 18.7078 17.9644 19.0215C17.653 19.3351 17.4789 19.7597 17.4805 20.2017C17.482 20.6437 17.6591 21.067 17.9728 21.3785C18.2865 21.6899 18.711 21.864 19.153 21.8624L48.4629 21.7579L41.3317 28.9367C41.0199 29.2508 40.8456 29.6759 40.8472 30.1185C40.8488 30.561 41.0261 30.9849 41.3402 31.2967C41.6542 31.6086 42.0793 31.7829 42.5219 31.7813C42.9645 31.7797 43.3883 31.6024 43.7001 31.2883L53.6644 21.2527Z" fill="#FFF4E2"/>
</svg>
