<svg width="49" height="40" viewBox="0 0 49 40" fill="none" xmlns="http://www.w3.org/2000/svg">
<path fill-rule="evenodd" clip-rule="evenodd" d="M0 37.7778C0 37.1884 0.234127 36.6232 0.650874 36.2064C1.06762 35.7897 1.63285 35.5556 2.22222 35.5556H46.6667C47.256 35.5556 47.8213 35.7897 48.238 36.2064C48.6548 36.6232 48.8889 37.1884 48.8889 37.7778C48.8889 38.3671 48.6548 38.9324 48.238 39.3491C47.8213 39.7659 47.256 40 46.6667 40H2.22222C1.63285 40 1.06762 39.7659 0.650874 39.3491C0.234127 38.9324 0 38.3671 0 37.7778ZM0 20C0 19.4106 0.234127 18.8454 0.650874 18.4287C1.06762 18.0119 1.63285 17.7778 2.22222 17.7778H46.6667C47.256 17.7778 47.8213 18.0119 48.238 18.4287C48.6548 18.8454 48.8889 19.4106 48.8889 20C48.8889 20.5894 48.6548 21.1546 48.238 21.5714C47.8213 21.9881 47.256 22.2222 46.6667 22.2222H2.22222C1.63285 22.2222 1.06762 21.9881 0.650874 21.5714C0.234127 21.1546 0 20.5894 0 20ZM0 2.22222C0 1.63285 0.234127 1.06762 0.650874 0.650874C1.06762 0.234127 1.63285 0 2.22222 0H46.6667C47.256 0 47.8213 0.234127 48.238 0.650874C48.6548 1.06762 48.8889 1.63285 48.8889 2.22222C48.8889 2.81159 48.6548 3.37682 48.238 3.79357C47.8213 4.21032 47.256 4.44444 46.6667 4.44444H2.22222C1.63285 4.44444 1.06762 4.21032 0.650874 3.79357C0.234127 3.37682 0 2.81159 0 2.22222Z" fill="#FFF4E2"/>
</svg>
