<svg width="140" height="140" viewBox="0 0 140 140" fill="none" xmlns="http://www.w3.org/2000/svg">
<path fill-rule="evenodd" clip-rule="evenodd" d="M92.2689 117.75C105.936 102.405 108.077 87.903 106.232 75.323C108.255 77.62 110.429 78.833 112.737 78.935C112.839 78.939 112.94 78.941 113.04 78.941C114.925 78.941 116.773 78.158 118.49 76.676C117.94 82.05 117.205 86.542 116.222 89.364C110.639 105.4 101.892 112.176 92.2689 117.751V117.75ZM70.6179 131.43C65.4889 126.86 59.7879 123.736 54.2519 120.703C46.2099 116.297 38.4769 112.058 32.2879 103.623C39.2729 107.4 46.4119 108.843 53.0779 108.841C63.4689 108.841 72.7079 105.363 78.4019 101.873C92.9439 92.96 99.6169 76.917 99.6419 61.988C100.144 63.395 100.614 64.813 101.052 66.241L101.025 66.254L101.128 66.491C105.958 82.455 106.645 101.963 82.2399 123.346C78.2539 125.633 74.2889 128.158 70.6179 131.43V131.43ZM65.7329 30.98L69.1339 38.393C68.8679 38.293 68.6079 38.201 68.3629 38.118C68.0529 38.014 67.7459 37.914 67.4529 37.784C63.3259 35.956 57.3719 36.355 53.6729 36.866L56.4869 32.145C58.0189 31.771 62.2699 30.838 65.7329 30.98V30.98ZM76.8269 99.24C67.1759 105.156 46.6509 111.027 28.5489 97.6C27.2659 95.156 26.0809 92.432 25.0139 89.365C22.5339 82.246 21.6169 64.575 21.3179 48.585L32.3259 38.711C30.6499 49.137 31.2999 58.352 34.2699 66.156C37.9759 75.89 44.2379 80.711 48.8399 83.042C58.7169 88.047 70.2069 86.16 76.7779 78.456C86.1419 67.473 80.1179 54.772 77.5459 49.348C77.2229 48.668 76.9559 48.106 76.7859 47.68C76.2692 46.3717 75.6458 45.1081 74.9219 43.902L74.9969 43.866L69.9079 32.776L72.2469 35.082L77.1949 29.943L68.6599 30.053L68.4249 29.54L71.1189 24.253L85.6629 28.227C88.5369 34.509 92.3279 43.155 93.6339 46.148L93.8659 46.834C94.1899 47.788 94.5519 48.773 94.9329 49.775C99.7159 66.204 94.5209 88.393 76.8259 99.239L76.8269 99.24ZM21.2919 21.167C24.7749 21.403 30.6449 21.57 37.5229 20.83C50.9669 19.386 62.3399 15.054 70.6179 8.253C78.8949 15.054 90.2679 19.386 103.712 20.83C109.103 21.4066 114.534 21.5193 119.944 21.167C120.078 29.809 120.29 53.677 118.949 71.462C117.051 74.362 114.893 75.95 112.869 75.86C110.033 75.735 107.032 72.38 104.42 66.413L103.932 65.295C102.588 60.872 100.963 56.78 99.4949 53.085C98.9201 51.6482 98.3567 50.2068 97.8049 48.761C97.5483 47.878 97.2621 47.0038 96.9469 46.14C96.9299 46.09 96.7569 45.689 96.4689 45.026L96.2489 44.376L96.1929 44.396C94.5829 40.703 90.7459 31.986 88.1229 26.279L87.8249 25.629L69.5409 20.634L65.8399 27.9C61.1069 27.717 55.3729 29.248 55.1159 29.32L54.5249 29.48L47.5129 41.25L50.9889 40.457C51.0849 40.437 60.9049 38.243 66.2359 40.604C66.6159 40.771 67.0079 40.905 67.4059 41.038C67.9359 41.216 68.4359 41.385 68.8479 41.648C70.8299 42.914 72.5999 45.398 73.9669 48.83C74.1549 49.302 74.4499 49.927 74.8069 50.68C77.3169 55.974 82.5409 66.988 74.4769 76.444C68.8189 83.082 58.8359 84.664 50.2019 80.289C34.3289 72.25 32.5319 51.567 36.1419 34.892L37.1419 30.278L21.2559 44.528C21.1615 36.7412 21.1738 28.9535 21.2929 21.167H21.2919ZM125.881 14.295L122.521 14.749C122.206 14.79 90.7869 18.819 72.6779 1.923L70.6179 0L68.5559 1.923C50.4919 18.777 19.0259 14.791 18.7159 14.749L15.3549 14.295L15.2729 17.727C15.2169 20.102 13.9429 76.084 19.2779 91.41C26.6479 112.58 39.2099 119.462 51.3579 126.117C57.5719 129.52 63.4409 132.734 68.4679 137.823L70.6179 140L72.7679 137.823C77.7959 132.734 83.6639 129.521 89.8769 126.117C102.025 119.462 114.587 112.581 121.957 91.41C127.294 76.084 126.02 20.102 125.963 17.727L125.881 14.295V14.295Z" fill="#FFF4E2"/>
</svg>
