<svg width="140" height="140" viewBox="0 0 140 140" fill="none" xmlns="http://www.w3.org/2000/svg">
<path fill-rule="evenodd" clip-rule="evenodd" d="M69.307 0.251953L71.371 1.93195C91.806 18.553 117.823 19.052 119.543 19.065H119.631L122.876 19.045L119.994 72.683C118.555 100.469 73.286 135.498 71.36 136.976L69.492 138.409L67.622 136.979C65.662 135.481 19.642 99.978 18.419 73.246L16.135 18.992L19.395 19.066C19.671 19.056 48.479 19.466 67.35 2.05595L69.307 0.252953V0.251953ZM71.074 22.65L47.304 34.64C47.194 36.149 47.065 39.875 46.98 43.483L60.828 48.989L72.823 39.645L73.783 40.599C73.912 40.728 76.949 43.794 76.663 47.512C76.503 49.584 75.39 51.387 73.355 52.873L36.587 79.46C36.284 79.648 31.012 82.986 29.589 87.868C33.539 94.864 39.744 102.755 48.068 111.299C48.486 111.729 48.902 112.149 49.321 112.569C53.469 114.709 58.01 114.794 63.296 112.91C69.638 110.653 87.86 96.827 88.044 96.687L89.257 95.765L91.117 98.17L89.905 99.093C89.14 99.673 71.115 113.348 64.329 115.763C61.521 116.763 58.846 117.265 56.299 117.265C55.5197 117.265 54.7411 117.216 53.968 117.118C58.9544 121.854 64.131 126.386 69.485 130.702C73.189 127.712 81.865 120.462 90.535 111.425C100.956 100.565 108.026 90.644 111.477 82.162C110.591 79.32 108.334 76.701 105.321 75.197C103.032 74.054 98.355 72.637 92.764 75.978L67.516 93.394C64.853 95.083 60.966 97.55 56.734 97.55C53.204 97.551 49.435 95.836 45.933 90.528L45.161 89.357L46.274 88.5C46.467 88.352 65.624 73.63 81.851 62.5C82.295 62.194 82.809 61.806 83.338 61.407C84.202 60.757 85.096 60.083 85.865 59.621C89.254 57.591 91.625 53.716 92.21 49.258C92.89 44.067 91.105 38.985 87.184 34.941C79.494 28.363 73.154 24.028 71.074 22.651V22.65ZM69.547 8.22995C52.742 22.377 30.742 24.705 22.51 25.068L24.528 72.982C24.683 76.37 25.795 80.199 27.788 84.388C29.618 80.984 32.655 78.325 34.924 76.916L71.548 50.428C72.847 49.481 73.525 48.449 73.614 47.282C73.716 45.951 73.046 44.652 72.454 43.787L61.33 52.454L52.806 49.065L52.838 49.141L51.423 49.716C47.161 51.451 44.768 52.702 45.172 58.253L45.282 59.764L42.234 59.984L42.123 58.472C41.995 56.722 42.139 55.274 42.462 54.042L37.108 53.972L37.148 50.941L43.886 51.028C45.197 49.292 47.048 48.286 48.862 47.498L43.878 45.515L43.9 44.468C43.964 41.458 44.14 34.346 44.4 33.294L44.568 32.62L71.258 19.157L71.995 19.623C72.303 19.818 79.655 24.493 89.235 32.692L89.334 32.785C93.948 37.514 96.045 43.503 95.24 49.648C94.538 55.013 91.625 59.712 87.448 62.214C86.817 62.592 85.988 63.216 85.188 63.821C84.621 64.248 84.068 64.663 83.591 64.991C69.711 74.512 53.667 86.681 49.297 90.016C54.606 97.121 59.734 94.736 65.82 90.872L91.103 73.438C96.186 70.393 101.839 70.068 106.695 72.49C109.283 73.781 111.439 75.756 112.9 78.048C113.456 76.058 113.795 74.158 113.888 72.368L116.433 25.011C108.508 24.511 87.624 21.886 69.547 8.22995V8.22995ZM61.135 33L58.315 41L48.135 38.601L61.135 33Z" fill="#FFF4E2"/>
</svg>
